<svg version="1.1" xmlns="http://www.w3.org/2000/svg" viewBox="0 0 1729.9999999999993 1566.2499999999993" width="1729.9999999999993" height="1566.2499999999993">
  <!-- svg-source:excalidraw -->
  
  <defs>
    <style class="style-fonts">
      @font-face {
        font-family: "Virgil";
        src: url("https://excalidraw.com/Virgil.woff2");
      }
      @font-face {
        font-family: "Cascadia";
        src: url("https://excalidraw.com/Cascadia.woff2");
      }
      @font-face {
        font-family: "Assistant";
        src: url("https://excalidraw.com/Assistant-Regular.woff2");
      }
    </style>
    
  </defs>
  <g stroke-linecap="round" transform="translate(82.50000000000023 84.99999999999977) rotate(0 773.7499999999998 658.7499999999998)"><path d="M32 0 C390.12 -7.6, 746.79 -5.65, 1515.5 0 C1535.06 2.08, 1545.94 8.05, 1547.5 32 C1542.69 307.06, 1544.88 581.2, 1547.5 1285.5 C1548.16 1309.62, 1539.12 1318.38, 1515.5 1317.5 C1002.87 1319.58, 490.5 1319.51, 32 1317.5 C8.37 1319.41, -1.62 1307.87, 0 1285.5 C-0.7 876.64, 0.19 464.85, 0 32 C-3.35 7.72, 13.16 2.44, 32 0" stroke="none" stroke-width="0" fill="#f8f9fa"></path><path d="M32 0 C528.82 -3.66, 1025.99 -2.67, 1515.5 0 M32 0 C381.34 -3.07, 730.01 -2.61, 1515.5 0 M1515.5 0 C1535.6 0.04, 1547.26 10.51, 1547.5 32 M1515.5 0 C1535.14 -2.06, 1546.28 10.44, 1547.5 32 M1547.5 32 C1542.97 317.27, 1543.24 602.63, 1547.5 1285.5 M1547.5 32 C1551.98 289.43, 1551.56 547.91, 1547.5 1285.5 M1547.5 1285.5 C1548.12 1307.05, 1534.89 1319.26, 1515.5 1317.5 M1547.5 1285.5 C1545.31 1307.46, 1536.65 1319.23, 1515.5 1317.5 M1515.5 1317.5 C993.27 1321, 468.9 1321.7, 32 1317.5 M1515.5 1317.5 C956.81 1320.69, 397.52 1320.59, 32 1317.5 M32 1317.5 C9.07 1316.72, -0.49 1305.26, 0 1285.5 M32 1317.5 C8.9 1319.4, 0.68 1305.81, 0 1285.5 M0 1285.5 C0.67 980.67, 0.24 675.09, 0 32 M0 1285.5 C-2.41 891.67, -2.71 497.97, 0 32 M0 32 C-0.93 9.14, 9.22 -0.68, 32 0 M0 32 C-1.68 8.41, 12.46 -0.98, 32 0" stroke="#1e1e1e" stroke-width="2" fill="none"></path></g><g stroke-linecap="round" transform="translate(11.25 583.7499999999998) rotate(0 622.4999999999998 486.2499999999998)"><path d="M32 0 C420.74 -6.26, 812.37 -4.17, 1213 0 C1237.91 0.09, 1244.93 12.62, 1245 32 C1247.7 370.41, 1247.5 709.3, 1245 940.5 C1241.91 965.35, 1232.71 971.5, 1213 972.5 C752.41 979.43, 290.45 981.41, 32 972.5 C13.37 975.33, -1.15 961.24, 0 940.5 C1.56 735.64, 3.88 527.5, 0 32 C2.88 7.91, 7.63 -2, 32 0" stroke="none" stroke-width="0" fill="#ffc9c955"></path><path d="M32 0 C380.04 3.45, 727.23 4.11, 1213 0 M32 0 C351.31 1.73, 671.05 1.99, 1213 0 M1213 0 C1234.25 -1.08, 1243.11 12.28, 1245 32 M1213 0 C1234.33 -2.01, 1244.81 11.96, 1245 32 M1245 32 C1243.81 374.9, 1244.1 717.74, 1245 940.5 M1245 32 C1244.15 268.17, 1243.74 503.9, 1245 940.5 M1245 940.5 C1245.74 961.08, 1233.51 972.8, 1213 972.5 M1245 940.5 C1245.31 963.97, 1236.05 973.06, 1213 972.5 M1213 972.5 C917.91 968.53, 623.31 969.61, 32 972.5 M1213 972.5 C826.94 969.19, 441.19 968.97, 32 972.5 M32 972.5 C10.92 970.93, 1.55 962.24, 0 940.5 M32 972.5 C9.37 974.27, -0.1 961.44, 0 940.5 M0 940.5 C1.56 666.39, 0.62 392.21, 0 32 M0 940.5 C2.69 685.3, 3.44 429.41, 0 32 M0 32 C-1.45 9.45, 11.45 0.28, 32 0 M0 32 C-0.21 9.13, 11.32 -2.22, 32 0" stroke="#e03131" stroke-width="2" fill="none"></path></g><g stroke-linecap="round"><g transform="translate(697.5768648938413 1051.932017080453) rotate(0 0 99.99999999999989)"><path d="M-0.18 -0.13 C0.11 32.9, 0.4 165.86, 0.62 199.02 M-1.74 -1.25 C-1.45 31.83, -0.46 166.58, 0 200.05" stroke="#1e1e1e" stroke-width="2" fill="none"></path></g><g transform="translate(697.5768648938413 1051.932017080453) rotate(0 0 99.99999999999989)"><path d="M-10.54 171.96 C-8.38 178.82, -7.61 185.55, 0 200.05 M-10.54 171.96 C-9.61 177.47, -6.43 183.18, 0 200.05" stroke="#1e1e1e" stroke-width="2" fill="none"></path></g><g transform="translate(697.5768648938413 1051.932017080453) rotate(0 0 99.99999999999989)"><path d="M9.98 171.75 C7.9 178.62, 4.43 185.4, 0 200.05 M9.98 171.75 C6.72 177.46, 5.7 183.21, 0 200.05" stroke="#1e1e1e" stroke-width="2" fill="none"></path></g></g><mask></mask><g stroke-linecap="round"><g transform="translate(692.9397877027176 535.5511574442031) rotate(0 0 99.99999999999994)"><path d="M0.71 1.19 C0.59 34.72, 0.25 167.3, 0.06 200.37 M-0.38 0.77 C-0.72 34, -0.69 165.12, -0.86 198.44" stroke="#1e1e1e" stroke-width="2" fill="none"></path></g><g transform="translate(692.9397877027176 535.5511574442031) rotate(0 0 99.99999999999994)"><path d="M-11.06 170.23 C-5.56 180.56, -3.2 190.04, -0.86 198.44 M-11.06 170.23 C-8.72 177.97, -5.55 185.07, -0.86 198.44" stroke="#1e1e1e" stroke-width="2" fill="none"></path></g><g transform="translate(692.9397877027176 535.5511574442031) rotate(0 0 99.99999999999994)"><path d="M9.46 170.27 C7.48 180.71, 2.34 190.17, -0.86 198.44 M9.46 170.27 C6.35 177.87, 4.07 184.96, -0.86 198.44" stroke="#1e1e1e" stroke-width="2" fill="none"></path></g></g><mask></mask><g stroke-linecap="round"><g transform="translate(1032.4999999999998 904.9999999999997) rotate(0 186.25628281588558 -0.40706366186526566)"><path d="M1.02 0.31 C63.35 0.5, 311.27 0.1, 373.01 0.06 M0.09 -0.58 C62.4 -0.62, 310.03 -1.4, 372.32 -1.6" stroke="#1e1e1e" stroke-width="2" fill="none"></path></g><g transform="translate(1032.4999999999998 904.9999999999997) rotate(0 186.25628281588558 -0.40706366186526566)"><path d="M344.16 8.75 C350.83 7.11, 357.85 2.3, 372.32 -1.6 M344.16 8.75 C354.92 4.64, 366.1 0.71, 372.32 -1.6" stroke="#1e1e1e" stroke-width="2" fill="none"></path></g><g transform="translate(1032.4999999999998 904.9999999999997) rotate(0 186.25628281588558 -0.40706366186526566)"><path d="M344.1 -11.77 C350.6 -8.99, 357.63 -9.38, 372.32 -1.6 M344.1 -11.77 C355 -8.14, 366.2 -4.33, 372.32 -1.6" stroke="#1e1e1e" stroke-width="2" fill="none"></path></g></g><mask></mask><g stroke-linecap="round" transform="translate(135.03968253968105 910.3333333333331) rotate(0 280 221.66666666666657)"><path d="M32 0 C154.41 0.8, 278.5 1.01, 528 0 M32 0 C137.93 1.88, 244.17 2.12, 528 0 M528 0 C549.5 -0.91, 560.63 11.44, 560 32 M528 0 C549.14 -2.16, 560.86 8.6, 560 32 M560 32 C559.39 165.71, 560.68 298.38, 560 411.33 M560 32 C561.9 123.13, 561.14 215.36, 560 411.33 M560 411.33 C561.8 432.71, 549.82 442.37, 528 443.33 M560 411.33 C559.73 432.49, 550.31 441.98, 528 443.33 M528 443.33 C364.52 441.7, 201.49 441.05, 32 443.33 M528 443.33 C380.91 444.45, 234.11 444.61, 32 443.33 M32 443.33 C9.33 442.3, -0.86 433.03, 0 411.33 M32 443.33 C12.39 444.28, 0.17 431.48, 0 411.33 M0 411.33 C1.47 333.42, 0.52 253.26, 0 32 M0 411.33 C-0.9 324.63, -0.45 237.79, 0 32 M0 32 C0.49 9.68, 11.49 0.94, 32 0 M0 32 C0.81 12.11, 9.27 2.16, 32 0" stroke="#1e1e1e" stroke-width="4" fill="none"></path></g><g stroke-linecap="round" transform="translate(324.2063492063479 726.1666666666664) rotate(0 372.4999999999998 181.25000000000006)"><path d="M466.25 45.5 C525.98 70.64, 582.93 103.05, 651.75 136.5 C742.17 183.41, 747.16 180.86, 651.75 227.5 C604.99 249.33, 558.78 269.4, 466.25 317 C370.46 359.57, 373.56 360.2, 279.75 317 C225.5 291.2, 166.32 261.34, 93.25 227.5 C0.13 183.95, 0.5 182.38, 93.25 136.5 C147.66 108.5, 197.17 81.22, 279.75 45.5 C372.49 -2.03, 372.34 0.58, 466.25 45.5" stroke="none" stroke-width="0" fill="#ffec99"></path><path d="M466.25 45.5 C516.55 70.28, 568.21 96.3, 651.75 136.5 M466.25 45.5 C537.32 80.61, 608.09 114.52, 651.75 136.5 M651.75 136.5 C746.23 183.13, 745.32 183.01, 651.75 227.5 M651.75 136.5 C744.55 183.99, 746.21 180.73, 651.75 227.5 M651.75 227.5 C612.11 244.8, 574.1 263.48, 466.25 317 M651.75 227.5 C591.34 257.22, 531.36 285.26, 466.25 317 M466.25 317 C373.36 362.88, 371.12 361.17, 279.75 317 M466.25 317 C374.83 361.12, 375.26 360.94, 279.75 317 M279.75 317 C231.1 294.62, 185.43 273.53, 93.25 227.5 M279.75 317 C241.15 297.9, 201.5 278.49, 93.25 227.5 M93.25 227.5 C-0.25 181.09, 0.97 181.17, 93.25 136.5 M93.25 227.5 C2.12 182.19, 2.03 181.13, 93.25 136.5 M93.25 136.5 C167.64 101.96, 238.03 66.7, 279.75 45.5 M93.25 136.5 C131.56 116.01, 168.54 98.69, 279.75 45.5 M279.75 45.5 C374.53 -1.49, 373.48 1.77, 466.25 45.5 M279.75 45.5 C371.19 -2.14, 375.27 1.19, 466.25 45.5" stroke="#1e1e1e" stroke-width="4" fill="none"></path></g><g stroke-linecap="round" transform="translate(229.20634920634825 1249.8333333333328) rotate(0 461.2500000000001 97.91666666666674)"><path d="M32 0 C247.51 -2.7, 465.96 -2.28, 890.5 0 C908.63 -2.36, 923.67 8.56, 922.5 32 C920.62 83.21, 921.28 134.4, 922.5 163.83 C919.32 187.7, 913.62 195.17, 890.5 195.83 C649.87 195.12, 409.83 193.36, 32 195.83 C12.5 195.66, -2.04 185.8, 0 163.83 C3.18 122.92, -1.66 80.23, 0 32 C-3.42 7.91, 11.24 -2.19, 32 0" stroke="none" stroke-width="0" fill="#eaddd7"></path><path d="M32 0 C287.26 2.45, 542.23 3.14, 890.5 0 M32 0 C290.78 -2.45, 549.68 -2.7, 890.5 0 M890.5 0 C911.4 0.17, 922.03 10.25, 922.5 32 M890.5 0 C910.11 -0.23, 923.55 12.85, 922.5 32 M922.5 32 C923.12 62.37, 922.94 97.37, 922.5 163.83 M922.5 32 C922.53 70.07, 922.64 107.58, 922.5 163.83 M922.5 163.83 C921.22 184.37, 913.45 194.85, 890.5 195.83 M922.5 163.83 C923.12 186.45, 913.16 196.84, 890.5 195.83 M890.5 195.83 C556.82 197.2, 222.87 196.46, 32 195.83 M890.5 195.83 C558.19 195.55, 226.26 196.14, 32 195.83 M32 195.83 C12.22 194.86, -1.32 185.27, 0 163.83 M32 195.83 C12.12 194.75, -0.93 183.49, 0 163.83 M0 163.83 C0.25 123.01, 2.74 83.74, 0 32 M0 163.83 C0.02 113.97, -0.36 63.41, 0 32 M0 32 C1.7 12.05, 12.5 -1.37, 32 0 M0 32 C-2.01 8.87, 10.74 -0.31, 32 0" stroke="#1e1e1e" stroke-width="4" fill="none"></path></g><g transform="translate(266.7063492063487 1284.4999999999995) rotate(0 426.26953125 58.200000000000045)"><text x="0" y="0" font-family="Cascadia, Segoe UI Emoji" font-size="48.50000000000006px" fill="#1e1e1e" text-anchor="start" style="white-space: pre;" direction="ltr" dominant-baseline="text-before-edge">print(indice,lista_numeros[i])</text><text x="0" y="58.20000000000007" font-family="Cascadia, Segoe UI Emoji" font-size="48.50000000000006px" fill="#1e1e1e" text-anchor="start" style="white-space: pre;" direction="ltr" dominant-baseline="text-before-edge">indice = indice+1</text></g><g transform="translate(418.31767733134825 875.3999999999996) rotate(0 298.388671875 29.100000000000023)"><text x="298.388671875" y="0" font-family="Cascadia, Segoe UI Emoji" font-size="48.50000000000006px" fill="#1e1e1e" text-anchor="middle" style="white-space: pre;" direction="ltr" dominant-baseline="text-before-edge">indice &lt; len(lista)? </text></g><g transform="translate(711.5793960813482 1125.3999999999994) rotate(0 42.626953125 29.100000000000023)"><text x="42.626953125" y="0" font-family="Cascadia, Segoe UI Emoji" font-size="48.50000000000006px" fill="#1e1e1e" text-anchor="middle" style="white-space: pre;" direction="ltr" dominant-baseline="text-before-edge">SIM</text></g><g transform="translate(1084.0793960813482 825.3999999999996) rotate(0 42.626953125 29.100000000000023)"><text x="42.626953125" y="0" font-family="Cascadia, Segoe UI Emoji" font-size="48.50000000000006px" fill="#1e1e1e" text-anchor="middle" style="white-space: pre;" direction="ltr" dominant-baseline="text-before-edge">NÃO</text></g><g stroke-linecap="round"><g transform="translate(165 911.9999999999997) rotate(0 90.85317460317424 0)"><path d="M1.09 -0.6 C31.38 -0.81, 151.46 -0.9, 181.72 -0.79 M0.2 1.7 C30.33 1.58, 150.41 0.39, 180.77 0.33" stroke="#1e1e1e" stroke-width="2" fill="none"></path></g><g transform="translate(165 911.9999999999997) rotate(0 90.85317460317424 0)"><path d="M152.65 10.77 C160 7.42, 168.08 5.84, 180.77 0.33 M152.65 10.77 C162.01 7.83, 169.92 3.34, 180.77 0.33" stroke="#1e1e1e" stroke-width="2" fill="none"></path></g><g transform="translate(165 911.9999999999997) rotate(0 90.85317460317424 0)"><path d="M152.52 -9.75 C159.99 -6.98, 168.11 -2.43, 180.77 0.33 M152.52 -9.75 C161.94 -6.49, 169.89 -4.79, 180.77 0.33" stroke="#1e1e1e" stroke-width="2" fill="none"></path></g></g><mask></mask><g stroke-linecap="round" transform="translate(1409.9999999999993 824.9999999999995) rotate(0 155.0000000000001 77.50000000000011)"><path d="M213.05 6.07 C229.62 7.97, 245.33 14.08, 258.33 19.94 C271.33 25.79, 282.85 33.58, 291.04 41.19 C299.22 48.8, 304.75 56.85, 307.44 65.6 C310.14 74.35, 310.76 84.85, 307.22 93.71 C303.67 102.57, 295.59 111.28, 286.19 118.74 C276.78 126.19, 264.44 133.06, 250.8 138.45 C237.16 143.83, 221 148.29, 204.36 151.03 C187.73 153.76, 168.81 155, 150.99 154.87 C133.17 154.75, 113.8 153.6, 97.44 150.29 C81.08 146.98, 66 141.12, 52.82 135.02 C39.63 128.92, 26.95 121.35, 18.33 113.7 C9.72 106.05, 3.8 97.83, 1.12 89.13 C-1.57 80.42, -1.41 70.09, 2.23 61.46 C5.87 52.83, 13.44 44.76, 22.94 37.36 C32.44 29.96, 45.28 22.71, 59.21 17.08 C73.14 11.46, 89.91 6.49, 106.52 3.63 C123.13 0.77, 139.73 -0.83, 158.86 -0.07 C177.99 0.7, 209.54 6.4, 221.32 8.24 C233.1 10.07, 230.65 9.94, 229.55 10.95 M197.79 2.12 C214.57 3.62, 232.21 10.38, 246.63 15.64 C261.05 20.91, 274.35 26.43, 284.3 33.69 C294.24 40.94, 301.93 50.32, 306.3 59.17 C310.66 68.02, 312.6 78.3, 310.5 86.77 C308.4 95.25, 301.63 102.07, 293.7 110.02 C285.77 117.96, 275.29 128, 262.93 134.44 C250.56 140.89, 235.52 145.17, 219.49 148.7 C203.47 152.23, 184.72 155.04, 166.76 155.63 C148.81 156.22, 128.94 154.92, 111.76 152.24 C94.58 149.56, 77.92 144.88, 63.68 139.56 C49.44 134.23, 36 127.48, 26.33 120.3 C16.67 113.13, 10.14 104.9, 5.69 96.51 C1.24 88.12, -1.89 78.95, -0.37 69.97 C1.14 60.99, 6.75 50.47, 14.79 42.64 C22.83 34.8, 35.17 29.19, 47.86 22.98 C60.55 16.77, 75.03 9.12, 90.95 5.37 C106.86 1.61, 125.77 0.89, 143.36 0.47 C160.94 0.05, 187.61 2.04, 196.46 2.84 C205.3 3.64, 196.74 4.2, 196.41 5.27" stroke="none" stroke-width="0" fill="#ffc9c9"></path><path d="M99.25 5.38 C113.92 1.4, 133.86 1.12, 151.53 0.87 C169.2 0.63, 188.62 1.27, 205.28 3.91 C221.95 6.55, 237.66 11.24, 251.49 16.71 C265.33 22.18, 279.18 29.12, 288.29 36.73 C297.4 44.34, 302.72 53.7, 306.15 62.39 C309.58 71.08, 311.5 79.94, 308.88 88.86 C306.26 97.77, 299.02 108.08, 290.45 115.9 C281.88 123.72, 270.63 130.25, 257.46 135.8 C244.29 141.35, 227.87 146.02, 211.42 149.21 C194.96 152.4, 176.54 154.53, 158.72 154.96 C140.91 155.38, 121.24 154.62, 104.52 151.75 C87.8 148.88, 72.14 143.37, 58.42 137.75 C44.7 132.13, 31.32 125.68, 22.2 118.03 C13.08 110.37, 6.94 100.53, 3.68 91.84 C0.42 83.14, 0.07 74.61, 2.64 65.85 C5.21 57.1, 10.57 47.1, 19.08 39.3 C27.6 31.5, 38.89 25.08, 53.71 19.05 C68.53 13.02, 97.07 5.68, 108.01 3.13 C118.94 0.59, 118.41 2.53, 119.31 3.79 M173.43 1.26 C190.45 1.39, 210.43 5.5, 225.92 9.49 C241.42 13.47, 254.67 19.12, 266.4 25.16 C278.13 31.21, 289.25 37.64, 296.3 45.74 C303.34 53.84, 307.57 64.73, 308.68 73.78 C309.78 82.83, 308.01 91.91, 302.92 100.04 C297.84 108.17, 288.41 115.6, 278.16 122.58 C267.91 129.56, 255.86 136.83, 241.41 141.93 C226.97 147.03, 209.12 150.83, 191.51 153.17 C173.9 155.51, 153.43 157.08, 135.75 155.96 C118.08 154.83, 101.02 150.76, 85.46 146.43 C69.91 142.1, 54.61 136.57, 42.44 129.97 C30.27 123.38, 19.38 114.9, 12.46 106.87 C5.53 98.84, 2.05 90.4, 0.9 81.8 C-0.25 73.21, 0.58 63.92, 5.56 55.29 C10.53 46.66, 20.23 37.37, 30.72 30.04 C41.22 22.71, 53.73 16.1, 68.53 11.33 C83.33 6.55, 101.85 3.29, 119.52 1.38 C137.18 -0.53, 165.83 -0.12, 174.51 -0.13 C183.19 -0.14, 172.14 0.02, 171.62 1.31" stroke="#1e1e1e" stroke-width="2" fill="none"></path></g><g transform="translate(1519.8730468749993 873.3999999999996) rotate(0 42.626953125 29.100000000000023)"><text x="42.626953125" y="0" font-family="Cascadia, Segoe UI Emoji" font-size="48.50000000000006px" fill="#1e1e1e" text-anchor="middle" style="white-space: pre;" direction="ltr" dominant-baseline="text-before-edge">FIM</text></g><g stroke-linecap="round" transform="translate(291.7063488095223 370.3333333333335) rotate(0 405.0000003968254 91.66666666666663)"><path d="M32 0 C274.63 -5.32, 518.22 -6.17, 778 0 C800.5 2.68, 808.66 8.76, 810 32 C807.12 75.35, 808.35 122.96, 810 151.33 C812.27 174.17, 800.76 186.73, 778 183.33 C507.18 184.99, 233.84 184.01, 32 183.33 C8.33 184.86, -2.85 174.96, 0 151.33 C-1.73 110.58, 2.73 68.71, 0 32 C-1.4 13.82, 13.35 -1.21, 32 0" stroke="none" stroke-width="0" fill="#b2f2bb"></path><path d="M32 0 C220.58 -3.09, 410.33 -1.61, 778 0 M32 0 C207.93 -0.85, 384.45 -0.48, 778 0 M778 0 C797.84 -1.16, 810.93 9.31, 810 32 M778 0 C799.11 -2.12, 811.31 9.61, 810 32 M810 32 C810.5 74.12, 809.41 113.73, 810 151.33 M810 32 C809.68 78.58, 809.47 124.89, 810 151.33 M810 151.33 C809.42 174.22, 798.67 184.19, 778 183.33 M810 151.33 C810.19 171.12, 798.4 185.46, 778 183.33 M778 183.33 C607.51 181.08, 438.66 181.31, 32 183.33 M778 183.33 C518.76 181.36, 259.4 181.32, 32 183.33 M32 183.33 C12.11 181.8, -0.62 172.49, 0 151.33 M32 183.33 C10.41 182.01, 0.25 171.14, 0 151.33 M0 151.33 C0.5 127.92, 1.1 103.57, 0 32 M0 151.33 C1.52 105.93, 0.24 59.33, 0 32 M0 32 C-0.45 9.64, 9.73 -1.6, 32 0 M0 32 C-1.51 10.76, 12.14 -1.87, 32 0" stroke="#1e1e1e" stroke-width="4" fill="none"></path></g><g transform="translate(328.0664062499998 395.8999999999997) rotate(0 369.43359375 58.200000000000074)"><text x="0" y="0" font-family="Cascadia, Segoe UI Emoji" font-size="48.50000000000006px" fill="#1e1e1e" text-anchor="start" style="white-space: pre;" direction="ltr" dominant-baseline="text-before-edge">lista = [10, 1, -5, 3, 12]</text><text x="0" y="58.20000000000007" font-family="Cascadia, Segoe UI Emoji" font-size="48.50000000000006px" fill="#1e1e1e" text-anchor="start" style="white-space: pre;" direction="ltr" dominant-baseline="text-before-edge">indice = 0</text></g><g stroke-linecap="round" transform="translate(557.4999999999998 10) rotate(0 155.0000000000001 77.50000000000013)"><path d="M116.7 2.33 C132.35 -1.07, 153.12 -1.28, 170.65 -0.34 C188.19 0.59, 205.98 3.94, 221.9 7.94 C237.82 11.95, 253.8 17.48, 266.15 23.7 C278.5 29.92, 288.69 37.46, 296.01 45.26 C303.34 53.05, 308.78 61.59, 310.12 70.47 C311.47 79.36, 308.91 89.98, 304.08 98.57 C299.26 107.16, 291.39 115.04, 281.17 122.01 C270.95 128.98, 257.21 135.34, 242.76 140.38 C228.31 145.42, 211.58 149.82, 194.47 152.26 C177.37 154.69, 157.96 155.63, 140.15 154.97 C122.34 154.3, 103.57 152.11, 87.61 148.26 C71.64 144.4, 56.73 138.42, 44.37 131.83 C32 125.24, 20.63 116.6, 13.41 108.73 C6.19 100.86, 2.45 93.24, 1.03 84.61 C-0.39 75.98, 0.34 65.7, 4.89 56.95 C9.44 48.2, 17.99 39.19, 28.33 32.11 C38.67 25.04, 50.36 19.8, 66.93 14.51 C83.5 9.22, 115.23 2.59, 127.74 0.38 C140.25 -1.83, 141.31 -0.29, 142 1.23 M189.34 2.25 C206.6 2.73, 224.74 6.17, 239.65 10.89 C254.56 15.62, 268.38 23.39, 278.8 30.61 C289.22 37.83, 297.02 45.65, 302.17 54.2 C307.32 62.75, 310.65 73.03, 309.7 81.92 C308.74 90.82, 303.06 99.29, 296.45 107.58 C289.83 115.87, 281.82 125.02, 269.99 131.67 C258.16 138.32, 241.39 143.73, 225.46 147.51 C209.53 151.28, 192.08 153.53, 174.39 154.3 C156.71 155.08, 136.68 154.05, 119.35 152.16 C102.02 150.26, 85.02 147.46, 70.4 142.92 C55.78 138.39, 42.42 132.16, 31.62 124.94 C20.83 117.72, 10.69 107.95, 5.61 99.61 C0.52 91.28, 0.22 83.56, 1.13 74.93 C2.04 66.3, 4.33 56.05, 11.07 47.82 C17.8 39.6, 29.33 32.19, 41.53 25.57 C53.74 18.96, 68.81 12.3, 84.3 8.14 C99.8 3.97, 116.81 1.68, 134.49 0.6 C152.18 -0.47, 181.45 1.04, 190.43 1.68 C199.41 2.31, 189.19 3.29, 188.35 4.41" stroke="none" stroke-width="0" fill="#ffc9c9"></path><path d="M204.24 4.5 C221.24 6.02, 238.76 12.26, 252.59 17.81 C266.42 23.36, 278 30.3, 287.22 37.79 C296.44 45.29, 304.57 54.36, 307.91 62.79 C311.25 71.22, 309.99 79.64, 307.27 88.39 C304.54 97.15, 299.9 107.5, 291.54 115.3 C283.19 123.11, 270.58 129.65, 257.13 135.22 C243.69 140.78, 227.39 145.4, 210.85 148.69 C194.31 151.98, 175.42 154.47, 157.9 154.96 C140.38 155.45, 122.42 154.42, 105.74 151.64 C89.06 148.86, 71.57 143.92, 57.82 138.3 C44.08 132.67, 32.45 125.59, 23.28 117.9 C14.1 110.2, 6.24 100.67, 2.76 92.11 C-0.71 83.55, -0.13 75.25, 2.44 66.53 C5 57.82, 9.9 47.77, 18.16 39.8 C26.42 31.84, 38.54 24.46, 52 18.72 C65.47 12.99, 82.3 8.44, 98.95 5.38 C115.61 2.32, 132.25 0.2, 151.95 0.35 C171.64 0.51, 204.51 4.45, 217.12 6.31 C229.72 8.16, 228.83 10.42, 227.59 11.46 M83.78 7.76 C97.71 2.87, 117.6 1.05, 134.76 0.07 C151.91 -0.9, 169.44 -0.22, 186.72 1.9 C204 4.02, 223.15 8.3, 238.43 12.78 C253.71 17.25, 267.67 22.17, 278.39 28.76 C289.11 35.35, 297.62 43.56, 302.77 52.34 C307.91 61.12, 309.78 72.24, 309.27 81.44 C308.77 90.64, 306.21 99.65, 299.75 107.54 C293.29 115.42, 282.73 122.51, 270.53 128.77 C258.33 135.02, 242.11 140.99, 226.55 145.08 C210.98 149.17, 194.44 151.8, 177.12 153.32 C159.8 154.85, 140.31 155.73, 122.63 154.21 C104.94 152.7, 85.91 149.04, 71 144.22 C56.09 139.4, 43.9 132.26, 33.17 125.3 C22.45 118.35, 11.99 110.82, 6.64 102.5 C1.29 94.19, 0.48 84.57, 1.09 75.44 C1.7 66.31, 3.6 56.24, 10.31 47.7 C17.02 39.17, 29.08 30.74, 41.34 24.23 C53.59 17.72, 76.73 10.97, 83.84 8.66 C90.96 6.36, 83.06 8.99, 84.04 10.38" stroke="#1e1e1e" stroke-width="2" fill="none"></path></g><g transform="translate(624.7460937499998 58.40000000000009) rotate(0 85.25390625 29.100000000000037)"><text x="85.25390625" y="0" font-family="Cascadia, Segoe UI Emoji" font-size="48.50000000000006px" fill="#1e1e1e" text-anchor="middle" style="white-space: pre;" direction="ltr" dominant-baseline="text-before-edge">INÍCIO</text></g><g stroke-linecap="round"><g transform="translate(694.9999999999998 167.5) rotate(0 0 99.99999999999994)"><path d="M0.24 0.01 C0.21 33, 0.24 165.58, 0.26 198.95 M-1.09 -1.04 C-1.3 32.59, -0.7 166.16, -0.56 199.93" stroke="#1e1e1e" stroke-width="2" fill="none"></path></g><g transform="translate(694.9999999999998 167.5) rotate(0 0 99.99999999999994)"><path d="M-10.94 171.79 C-7.18 181.73, -5.42 191.44, -0.56 199.93 M-10.94 171.79 C-8.52 181.12, -3.93 190.44, -0.56 199.93" stroke="#1e1e1e" stroke-width="2" fill="none"></path></g><g transform="translate(694.9999999999998 167.5) rotate(0 0 99.99999999999994)"><path d="M9.58 171.7 C6.4 181.71, 1.2 191.46, -0.56 199.93 M9.58 171.7 C5.51 181.25, 3.62 190.6, -0.56 199.93" stroke="#1e1e1e" stroke-width="2" fill="none"></path></g></g><mask></mask><g stroke-linecap="round" transform="translate(10 586.2499999999999) rotate(0 196.24999999999977 98.74999999999994)"><path d="M32 0 C145.01 -0.27, 262.06 -1.39, 360.5 0 C380.6 -2.32, 393.02 10.75, 392.5 32 C396.88 70.9, 394.83 106.59, 392.5 165.5 C392.87 188.37, 381.86 197.83, 360.5 197.5 C244.35 197.14, 122.53 194.86, 32 197.5 C7.23 199.18, 1.46 190.39, 0 165.5 C2.81 121.62, 2.14 74.28, 0 32 C0.3 9.09, 9.22 -1.56, 32 0" stroke="none" stroke-width="0" fill="#ffc9c9"></path><path d="M32 0 C149.84 -1.08, 264.69 -0.01, 360.5 0 M32 0 C136.89 1.29, 241.07 0.18, 360.5 0 M360.5 0 C382.73 0.22, 392.59 10.24, 392.5 32 M360.5 0 C382.6 -0.48, 391.21 10.32, 392.5 32 M392.5 32 C391.16 77.19, 391.84 122, 392.5 165.5 M392.5 32 C392.45 78.78, 393.3 127.64, 392.5 165.5 M392.5 165.5 C393.14 185.55, 381.14 197.72, 360.5 197.5 M392.5 165.5 C393.14 187.29, 381.76 197.42, 360.5 197.5 M360.5 197.5 C233.18 198.63, 103.91 198.05, 32 197.5 M360.5 197.5 C280.77 199.22, 202.03 198.79, 32 197.5 M32 197.5 C11.16 196.79, -0.61 188.08, 0 165.5 M32 197.5 C9.74 197.85, -0.33 188.41, 0 165.5 M0 165.5 C0.99 120.76, 0.92 78.05, 0 32 M0 165.5 C1.16 124.68, -0.19 81.37, 0 32 M0 32 C-1.84 11.25, 11.78 -1.24, 32 0 M0 32 C-0.72 12.83, 8.39 -2.24, 32 0" stroke="#e03131" stroke-width="2" fill="none"></path></g><g transform="translate(65.56640624999977 629.2999999999997) rotate(0 138.54217529296875 56.74800000000005)"><text x="0" y="0" font-family="Cascadia, Segoe UI Emoji" font-size="94.58000000000011px" fill="#1e1e1e" text-anchor="start" style="white-space: pre;" direction="ltr" dominant-baseline="text-before-edge">WHILE</text></g></svg>