<svg version="1.1" xmlns="http://www.w3.org/2000/svg" viewBox="0 0 1702 589.3089635226445" width="1702" height="589.3089635226445">
  <!-- svg-source:excalidraw -->
  
  <defs>
    <style class="style-fonts">
      @font-face {
        font-family: "Virgil";
        src: url("https://excalidraw.com/Virgil.woff2");
      }
      @font-face {
        font-family: "Cascadia";
        src: url("https://excalidraw.com/Cascadia.woff2");
      }
      @font-face {
        font-family: "Assistant";
        src: url("https://excalidraw.com/Assistant-Regular.woff2");
      }
    </style>
    
  </defs>
  <g stroke-linecap="round" transform="translate(10 10) rotate(0 841 247.66666666666666)"><path d="M32 0 C404.13 7.15, 776.92 8, 1650 0 C1668.06 -3.32, 1681.72 12.62, 1682 32 C1681.67 198.59, 1680.41 365.65, 1682 463.33 C1685.46 487.83, 1674.85 491.88, 1650 495.33 C1045.93 489.39, 439.95 491.08, 32 495.33 C7.48 492.51, -3.4 483.29, 0 463.33 C-0.38 334.89, -0.22 204.37, 0 32 C-3.43 11.84, 10.98 -1.91, 32 0" stroke="none" stroke-width="0" fill="#ffffff"></path><path d="M32 0 C565.7 -4.58, 1099.67 -4.72, 1650 0 M32 0 C617.28 1.27, 1202.62 0.65, 1650 0 M1650 0 C1671.52 0.67, 1680.54 11.14, 1682 32 M1650 0 C1669.12 -1.76, 1681.58 9.53, 1682 32 M1682 32 C1683.95 138.91, 1683.88 243.97, 1682 463.33 M1682 32 C1680.31 197.45, 1680.41 363.21, 1682 463.33 M1682 463.33 C1681.38 484.69, 1671.92 495.03, 1650 495.33 M1682 463.33 C1683.98 483.01, 1673.52 494.38, 1650 495.33 M1650 495.33 C1317.9 490.05, 984.05 489.88, 32 495.33 M1650 495.33 C1033.5 490.46, 416.48 490.88, 32 495.33 M32 495.33 C9.84 496, 1.87 482.83, 0 463.33 M32 495.33 C12.18 494.46, -0.08 484.32, 0 463.33 M0 463.33 C0.12 313.97, -0.45 163.43, 0 32 M0 463.33 C0.44 310.23, -0.29 158.42, 0 32 M0 32 C0.58 9.11, 12.07 -1.81, 32 0 M0 32 C1.05 8.74, 12.74 -1.31, 32 0" stroke="#1e1e1e" stroke-width="2" fill="none"></path></g><g stroke-linecap="round" transform="translate(73.08333333333314 80.1666666666668) rotate(0 769.166666666667 136.66666666666657)"><path d="M32 0 C408.5 -1.37, 781.98 -1.54, 1506.33 0 C1525.23 -2.42, 1538.11 9.45, 1538.33 32 C1537.32 107.17, 1534.84 175.19, 1538.33 241.33 C1537.09 264.97, 1527.75 276.59, 1506.33 273.33 C1077.26 277.54, 650.11 275.67, 32 273.33 C14.16 273.99, 1.33 265.59, 0 241.33 C5.08 159.79, 1.99 74.61, 0 32 C3.14 11.81, 12.23 -0.51, 32 0" stroke="none" stroke-width="0" fill="#d2bab0"></path><path d="M32 0 C596.4 4.06, 1161.87 4.11, 1506.33 0 M32 0 C526.23 -4.33, 1020.64 -4.73, 1506.33 0 M1506.33 0 C1527.17 0.61, 1539.38 9.43, 1538.33 32 M1506.33 0 C1527.71 1.9, 1539.14 10.96, 1538.33 32 M1538.33 32 C1539.22 74.6, 1540.26 118.84, 1538.33 241.33 M1538.33 32 C1538.58 88.48, 1538.36 143.09, 1538.33 241.33 M1538.33 241.33 C1539.79 261.47, 1526.11 274.51, 1506.33 273.33 M1538.33 241.33 C1539.19 260.54, 1526.37 272.1, 1506.33 273.33 M1506.33 273.33 C979.26 269.37, 450.99 270.3, 32 273.33 M1506.33 273.33 C1141.8 278.43, 777.56 278.04, 32 273.33 M32 273.33 C11.04 271.57, -0.2 263.07, 0 241.33 M32 273.33 C8.95 271.55, -1.98 261.27, 0 241.33 M0 241.33 C-1.97 160.74, 0.93 77.74, 0 32 M0 241.33 C1.07 164.62, 1.99 86.22, 0 32 M0 32 C1.38 11.29, 10.95 0.64, 32 0 M0 32 C1.75 8.61, 9.69 -0.02, 32 0" stroke="#1e1e1e" stroke-width="2" fill="none"></path></g><g stroke-linecap="round" transform="translate(73.08333333333314 133.50000000000017) rotate(0 769.166666666667 136.66666666666657)"><path d="M32 0 C343.83 -7.22, 652.15 -7.18, 1506.33 0 C1526.31 2.38, 1540.8 8.7, 1538.33 32 C1537.99 79.23, 1538.37 127.4, 1538.33 241.33 C1539.24 260.35, 1528.74 271.64, 1506.33 273.33 C963.09 282.13, 418.7 281.4, 32 273.33 C9.11 276.23, 2 264.72, 0 241.33 C0.68 158.8, -2.8 81.71, 0 32 C-0.7 8.66, 7.27 1.59, 32 0" stroke="none" stroke-width="0" fill="#ffd8a8"></path><path d="M32 0 C342.14 -1.82, 652.91 -1.95, 1506.33 0 M32 0 C578.14 4.16, 1123.69 4.15, 1506.33 0 M1506.33 0 C1528.62 1.34, 1537.26 9.32, 1538.33 32 M1506.33 0 C1529.62 -0.38, 1538.44 8.68, 1538.33 32 M1538.33 32 C1535.67 103.68, 1537.66 175.43, 1538.33 241.33 M1538.33 32 C1535.95 87.06, 1535.73 142.16, 1538.33 241.33 M1538.33 241.33 C1536.52 261.88, 1527.85 273.61, 1506.33 273.33 M1538.33 241.33 C1536.47 262.53, 1528.67 272.33, 1506.33 273.33 M1506.33 273.33 C1166.66 268.5, 825.83 268.72, 32 273.33 M1506.33 273.33 C1164.98 269.68, 823.68 269.04, 32 273.33 M32 273.33 C10.62 272.79, 0.81 264.17, 0 241.33 M32 273.33 C11.09 272.57, 1.14 262.98, 0 241.33 M0 241.33 C-1.08 188.78, 0.48 137.85, 0 32 M0 241.33 C-1.04 172.86, -1.19 104.78, 0 32 M0 32 C0.66 9.69, 10.93 -1.24, 32 0 M0 32 C-0.99 9.44, 9.46 0.09, 32 0" stroke="#1e1e1e" stroke-width="2" fill="none"></path></g><g stroke-linecap="round" transform="translate(104.75992063492077 159.10515873015873) rotate(0 141 141)"><path d="M32 0 C102.82 -2.3, 166.23 1.38, 250 0 C273.92 0.33, 284.74 7.46, 282 32 C276.43 77.77, 278.64 121.09, 282 250 C282.68 270.82, 273.01 282.76, 250 282 C189.67 278.63, 134.67 281.11, 32 282 C13.58 284.82, 2.85 270.52, 0 250 C2.25 184.94, 0.77 119.97, 0 32 C-0.96 11.75, 13.46 3.12, 32 0" stroke="none" stroke-width="0" fill="#846358"></path><path d="M32 0 C84.28 0.15, 136.35 0.23, 250 0 M32 0 C94.93 -1.23, 158.5 -1.39, 250 0 M250 0 C271.63 0.74, 282.15 12.15, 282 32 M250 0 C269.14 -0.98, 281.58 9.26, 282 32 M282 32 C281.42 96.72, 278.95 162.62, 282 250 M282 32 C280.24 98.59, 279.45 164.84, 282 250 M282 250 C281.53 270.39, 272.1 282.15, 250 282 M282 250 C280.62 272.45, 269.45 280.67, 250 282 M250 282 C196.45 282.71, 143.89 281.94, 32 282 M250 282 C200.16 281.09, 149.6 280.62, 32 282 M32 282 C10.85 281.89, -1.35 269.98, 0 250 M32 282 C9.57 282.04, 0.35 269.78, 0 250 M0 250 C1.07 172.92, 0.47 96.46, 0 32 M0 250 C1.99 165.61, 1.57 79.04, 0 32 M0 32 C0.07 10.47, 9.78 1.58, 32 0 M0 32 C0.69 10.62, 11.47 -0.18, 32 0" stroke="#1e1e1e" stroke-width="2" fill="none"></path></g><g stroke-linecap="round" transform="translate(404.8199404761906 159.10515873015873) rotate(0 141 141)"><path d="M32 0 C86.62 2.41, 143.42 1.51, 250 0 C273.1 -3.4, 283.69 7.73, 282 32 C277.3 105.65, 277.77 175.66, 282 250 C280.72 270.91, 274.93 280.92, 250 282 C200.15 283.64, 157.38 283.99, 32 282 C12.66 283.93, 1.79 274.73, 0 250 C3.81 167.72, 0.08 80.41, 0 32 C3.4 12.46, 9.76 0.2, 32 0" stroke="none" stroke-width="0" fill="#846358"></path><path d="M32 0 C102.65 -1.97, 176.1 -1.24, 250 0 M32 0 C92.62 -0.37, 154.38 -1.44, 250 0 M250 0 C271.63 1.5, 282.62 11.9, 282 32 M250 0 C270.15 -1.85, 281.18 10.36, 282 32 M282 32 C284.75 111.28, 283.05 190.89, 282 250 M282 32 C283.88 89.07, 282.71 144.42, 282 250 M282 250 C281.93 272.48, 270.86 281.7, 250 282 M282 250 C283.05 271.5, 272.84 282.53, 250 282 M250 282 C176.71 282.62, 100.35 279.64, 32 282 M250 282 C184.97 280.94, 120.27 280.91, 32 282 M32 282 C11.02 280.35, -1.83 270.17, 0 250 M32 282 C11.42 282.1, -0.81 269.37, 0 250 M0 250 C-1.55 191.36, 0.04 130.37, 0 32 M0 250 C1.75 189.52, 1.22 128.25, 0 32 M0 32 C1.34 9.36, 12.05 -0.3, 32 0 M0 32 C-1.09 10.37, 11.96 0.26, 32 0" stroke="#1e1e1e" stroke-width="2" fill="none"></path></g><g stroke-linecap="round" transform="translate(404.8199404761906 180.8948412698415) rotate(0 141 141)"><path d="M32 0 C82.23 -0.94, 139.01 -3.42, 250 0 C273.02 -2.94, 283.13 7.34, 282 32 C279.23 108.13, 279.19 185.53, 282 250 C285.6 270.25, 268.39 285.02, 250 282 C185.66 285.3, 118.05 285.23, 32 282 C12.45 285.4, 3.27 268.7, 0 250 C-3.85 187.43, 1.53 124.74, 0 32 C-0.91 10.86, 7.89 2.5, 32 0" stroke="none" stroke-width="0" fill="#f08c00"></path><path d="M32 0 C101.53 0.89, 168 2.45, 250 0 M32 0 C109.79 -1.87, 186.93 -0.82, 250 0 M250 0 C271.96 1.23, 280.98 9.06, 282 32 M250 0 C270.51 -0.3, 283.55 12.61, 282 32 M282 32 C282.7 115.58, 282.55 202.86, 282 250 M282 32 C282.82 116.89, 283.34 203.89, 282 250 M282 250 C281.52 271.03, 272.24 282.15, 250 282 M282 250 C283.51 271.86, 272.25 283.47, 250 282 M250 282 C191 281.75, 135.02 282.06, 32 282 M250 282 C192.67 280.77, 135.03 280.45, 32 282 M32 282 C8.84 280.84, 0.65 271.42, 0 250 M32 282 C9.86 280.04, -0.63 272.84, 0 250 M0 250 C1.61 169.54, -0.01 89.46, 0 32 M0 250 C-1.12 201.04, -0.53 150.68, 0 32 M0 32 C1.38 10.36, 9.72 -0.26, 32 0 M0 32 C1.29 10.93, 9.78 -0.88, 32 0" stroke="#1e1e1e" stroke-width="2" fill="none"></path></g><g stroke-linecap="round" transform="translate(470.3199404761906 231.22817460317486) rotate(0 75.5 13)"><path d="M6.5 0 C51.57 -3.02, 94.79 -2.56, 144.5 0 C149.96 -3.32, 152.91 0.38, 151 6.5 C150.08 10.71, 153.26 14.77, 151 19.5 C148.05 26.85, 149.07 23.37, 144.5 26 C98.85 29.33, 51 30.79, 6.5 26 C5.44 23.37, -0.33 25.34, 0 19.5 C2.39 15.55, -0.41 9.39, 0 6.5 C-2.78 4.67, 5.44 3.6, 6.5 0" stroke="none" stroke-width="0" fill="#a18072"></path><path d="M6.5 0 C33.76 1.45, 62.93 -0.07, 144.5 0 M6.5 0 C58.76 1.38, 111.05 1.24, 144.5 0 M144.5 0 C147.81 -1.61, 150.29 1.9, 151 6.5 M144.5 0 C150.38 1.94, 153.05 3.69, 151 6.5 M151 6.5 C150.43 10.66, 152.17 14.03, 151 19.5 M151 6.5 C150.9 11.46, 150.76 15.59, 151 19.5 M151 19.5 C151.91 23.98, 150.14 26.46, 144.5 26 M151 19.5 C151.91 25.3, 148 27.03, 144.5 26 M144.5 26 C92.71 23.11, 40.28 24.55, 6.5 26 M144.5 26 C109.3 24.53, 72.84 24.78, 6.5 26 M6.5 26 C2.82 26.09, -0.7 22.13, 0 19.5 M6.5 26 C1.54 27.51, 1.51 23.43, 0 19.5 M0 19.5 C-0.35 14.16, -1.05 11.27, 0 6.5 M0 19.5 C0.44 14.28, 0.45 9.81, 0 6.5 M0 6.5 C-0.95 1.9, 3.29 0.23, 6.5 0 M0 6.5 C-0.89 1.29, 0.83 -1.72, 6.5 0" stroke="#1e1e1e" stroke-width="2" fill="none"></path></g><g stroke-linecap="round" transform="translate(704.8799603174605 159.10515873015873) rotate(0 141 141)"><path d="M32 0 C86.96 -1.06, 138.28 4.12, 250 0 C268.01 3.34, 279.97 7.27, 282 32 C281.23 82.53, 282.23 133.55, 282 250 C284.73 272.32, 272.01 283.7, 250 282 C192.81 285.2, 127.21 281.15, 32 282 C13.96 282.1, -0.82 271.9, 0 250 C-1.41 175.99, 1.13 102.46, 0 32 C1.18 10.13, 9.9 1.92, 32 0" stroke="none" stroke-width="0" fill="#846358"></path><path d="M32 0 C103.25 0.1, 172.18 -1.75, 250 0 M32 0 C77.08 0.91, 124.54 0.65, 250 0 M250 0 C269.5 1.54, 280.2 10.48, 282 32 M250 0 C270 0.84, 280.72 11.27, 282 32 M282 32 C283.28 116.26, 284.53 200.95, 282 250 M282 32 C283.67 89.52, 283.32 146.8, 282 250 M282 250 C281.5 271.31, 269.45 281.47, 250 282 M282 250 C281.04 269.97, 273.21 283.76, 250 282 M250 282 C204.58 279.06, 158.33 279.43, 32 282 M250 282 C191.15 282.28, 130.6 283.26, 32 282 M32 282 C9.43 283.77, 0.87 270.59, 0 250 M32 282 C11.37 280.73, 0.25 271.91, 0 250 M0 250 C1.21 176.95, -0.67 108.37, 0 32 M0 250 C0.09 201.19, -0.71 152.21, 0 32 M0 32 C-1.86 11.3, 11.77 -0.07, 32 0 M0 32 C-0.79 10.4, 12.07 1.44, 32 0" stroke="#1e1e1e" stroke-width="2" fill="none"></path></g><g stroke-linecap="round" transform="translate(704.8799603174605 180.8948412698416) rotate(0 141 141)"><path d="M32 0 C87.52 5.4, 142.56 5.54, 250 0 C269.3 -3.39, 279.38 9.92, 282 32 C282.88 90.92, 284.31 145.79, 282 250 C282.67 273.03, 270.43 281.97, 250 282 C172.24 281.57, 103.32 283.97, 32 282 C9.84 282.57, 1.2 272.34, 0 250 C2.58 198.83, 1.53 151.53, 0 32 C-0.77 12.59, 13.59 -3.2, 32 0" stroke="none" stroke-width="0" fill="#f08c00"></path><path d="M32 0 C110.54 -1.97, 187.84 -0.78, 250 0 M32 0 C83.11 0.21, 132.02 1.53, 250 0 M250 0 C269.53 -0.18, 280.84 11.39, 282 32 M250 0 C270.06 0.61, 284.06 12.18, 282 32 M282 32 C283.31 81.81, 281.38 135.08, 282 250 M282 32 C281.3 107.01, 281.54 181.45, 282 250 M282 250 C280.12 270.81, 270.49 280.81, 250 282 M282 250 C283.88 273.09, 269.27 282.01, 250 282 M250 282 C204.26 279.8, 158.07 281.33, 32 282 M250 282 C177.2 281.85, 104.1 281.99, 32 282 M32 282 C11.54 281.26, 0.62 270.23, 0 250 M32 282 C10.92 282.58, 0.65 271.03, 0 250 M0 250 C-1.96 183.91, -2.38 114.79, 0 32 M0 250 C-1.03 176.55, -1.24 104.57, 0 32 M0 32 C1.1 10.59, 9.98 -0.23, 32 0 M0 32 C1.4 12.11, 9.44 0.38, 32 0" stroke="#1e1e1e" stroke-width="2" fill="none"></path></g><g stroke-linecap="round" transform="translate(770.3799603174605 231.22817460317486) rotate(0 75.5 13)"><path d="M6.5 0 C33.93 1.15, 65.99 -5.59, 144.5 0 C146.22 -0.75, 149.52 2.1, 151 6.5 C152.85 11.45, 151.51 16.22, 151 19.5 C150.09 23.8, 150.38 29.11, 144.5 26 C98.78 24.26, 45.64 24.73, 6.5 26 C3.37 27.01, -2.71 23.31, 0 19.5 C0.61 15.8, -0.65 14.05, 0 6.5 C2.92 -1.03, 0.37 0.93, 6.5 0" stroke="none" stroke-width="0" fill="#a18072"></path><path d="M6.5 0 C56.1 1.16, 107.9 -1.47, 144.5 0 M6.5 0 C40.7 1.81, 75.83 0.95, 144.5 0 M144.5 0 C147.67 0.73, 149.89 2.69, 151 6.5 M144.5 0 C150.89 1.51, 149.45 2.21, 151 6.5 M151 6.5 C150.61 11.12, 151.65 13.14, 151 19.5 M151 6.5 C150.77 10.78, 150.32 14.9, 151 19.5 M151 19.5 C150.16 22.64, 150.47 27.53, 144.5 26 M151 19.5 C148.94 23.85, 146.76 26.55, 144.5 26 M144.5 26 C112.32 26.09, 81.87 27.12, 6.5 26 M144.5 26 C108.14 27.89, 73.44 26.63, 6.5 26 M6.5 26 C2.78 24.9, 0.22 24.34, 0 19.5 M6.5 26 C2.82 25.7, 0.24 25.1, 0 19.5 M0 19.5 C-0.93 16.76, 0.51 14.16, 0 6.5 M0 19.5 C-0.52 16.13, 0.45 12.33, 0 6.5 M0 6.5 C-0.69 1.94, 3.39 1.26, 6.5 0 M0 6.5 C-1.23 2.55, 1.25 0.89, 6.5 0" stroke="#1e1e1e" stroke-width="2" fill="none"></path></g><g stroke-linecap="round" transform="translate(1004.9399801587304 159.10515873015873) rotate(0 141 141)"><path d="M32 0 C85.79 4.1, 142.64 1.41, 250 0 C274.93 2.37, 280.24 10.15, 282 32 C280.28 103.76, 283.13 173.92, 282 250 C282.26 274.75, 273.87 279.9, 250 282 C160.9 282.31, 78.69 277.84, 32 282 C7.6 283.47, 0.41 272.96, 0 250 C4.46 189.12, 3.51 127.5, 0 32 C-2.31 12.76, 9.89 -1.49, 32 0" stroke="none" stroke-width="0" fill="#846358"></path><path d="M32 0 C105.45 0.79, 175.5 1.14, 250 0 M32 0 C81.13 -0.49, 128.37 -0.24, 250 0 M250 0 C271.38 0.95, 281.44 9.57, 282 32 M250 0 C271.02 1.28, 282.71 12.34, 282 32 M282 32 C281.8 113.84, 281.14 193.68, 282 250 M282 32 C281.52 113.98, 282.27 195.95, 282 250 M282 250 C283.54 270.13, 270.83 282.63, 250 282 M282 250 C280.99 271.89, 272.88 280.24, 250 282 M250 282 C187.27 282.01, 125.42 281.89, 32 282 M250 282 C185.03 280.73, 119.22 279.65, 32 282 M32 282 C11.59 283.59, 1.99 270.27, 0 250 M32 282 C12.87 279.85, 2.1 269.71, 0 250 M0 250 C-2.15 178.66, -0.29 108.76, 0 32 M0 250 C-1.14 186.88, -0.81 124.87, 0 32 M0 32 C1.58 12.01, 10.45 -0.15, 32 0 M0 32 C-0.66 11.98, 11.66 1.03, 32 0" stroke="#1e1e1e" stroke-width="2" fill="none"></path></g><g stroke-linecap="round" transform="translate(1004.9399801587304 180.8948412698416) rotate(0 141 141)"><path d="M32 0 C83.87 -2.87, 140.24 -0.22, 250 0 C269.57 -0.52, 282.69 12.04, 282 32 C278.53 118.56, 278.93 202.64, 282 250 C284.53 269.23, 274.76 282.64, 250 282 C201.71 283.45, 148.69 286.36, 32 282 C11.08 283.63, -0.9 268.43, 0 250 C-1.1 160.39, -3.87 77.85, 0 32 C-0.78 9.18, 9.76 2.62, 32 0" stroke="none" stroke-width="0" fill="#f08c00"></path><path d="M32 0 C98.51 0.27, 164.25 -2.63, 250 0 M32 0 C95.86 0.92, 161.04 1.65, 250 0 M250 0 C270.77 -1.1, 281.73 11.78, 282 32 M250 0 C272.04 1.67, 283.67 11.37, 282 32 M282 32 C279.71 99.36, 282.49 167.8, 282 250 M282 32 C283.11 83.44, 282.91 134.62, 282 250 M282 250 C281.49 271.97, 270.46 282.48, 250 282 M282 250 C283.55 269.58, 271.02 282.67, 250 282 M250 282 C190.29 282.89, 130.11 283.67, 32 282 M250 282 C204.4 282.33, 159.02 283.66, 32 282 M32 282 C12.66 280.94, 1.91 269.47, 0 250 M32 282 C12.77 280.38, 0.6 271.97, 0 250 M0 250 C2.01 169.78, 1.55 88.53, 0 32 M0 250 C0.66 204.49, 1.3 158.91, 0 32 M0 32 C-0.22 10.52, 10.09 1.14, 32 0 M0 32 C0.99 11.7, 9.64 -1.54, 32 0" stroke="#1e1e1e" stroke-width="2" fill="none"></path></g><g stroke-linecap="round" transform="translate(1070.4399801587301 231.22817460317486) rotate(0 75.5 13)"><path d="M6.5 0 C60.69 2.84, 105.92 -0.04, 144.5 0 C149.53 1.37, 154.04 -1.31, 151 6.5 C151.16 13.52, 152.63 14.73, 151 19.5 C154.43 24.47, 146.18 22.63, 144.5 26 C87.56 26.17, 37.16 26.33, 6.5 26 C1.26 23.1, 3.56 25.79, 0 19.5 C-1.56 17.35, -0.56 11.51, 0 6.5 C-0.91 4.78, -0.35 -0.1, 6.5 0" stroke="none" stroke-width="0" fill="#a18072"></path><path d="M6.5 0 C53.57 -2.89, 103.66 0.44, 144.5 0 M6.5 0 C38.96 0.98, 71.1 -0.05, 144.5 0 M144.5 0 C148.56 1.12, 151.62 3.62, 151 6.5 M144.5 0 C150.51 0.7, 151.29 1.14, 151 6.5 M151 6.5 C151.88 10.44, 150.07 15.35, 151 19.5 M151 6.5 C151.63 9.92, 150.97 14.33, 151 19.5 M151 19.5 C150.12 24.31, 150.18 24.47, 144.5 26 M151 19.5 C150.68 24.5, 148.26 25.57, 144.5 26 M144.5 26 C99.3 27.61, 52.28 27.37, 6.5 26 M144.5 26 C96.51 25.78, 48.59 24.46, 6.5 26 M6.5 26 C4.08 24.13, 1.83 22.42, 0 19.5 M6.5 26 C2.77 26.64, 1.66 21.69, 0 19.5 M0 19.5 C-0.18 16.39, -1.18 11.67, 0 6.5 M0 19.5 C0.51 16.62, -0.08 12.82, 0 6.5 M0 6.5 C-0.57 3.31, 3.03 0.9, 6.5 0 M0 6.5 C-1.03 0.62, 0.81 -1.37, 6.5 0" stroke="#1e1e1e" stroke-width="2" fill="none"></path></g><g stroke-linecap="round" transform="translate(1305 159.10515873015873) rotate(0 141 141)"><path d="M32 0 C84.06 -0.61, 140.48 -3.03, 250 0 C269.2 -1.29, 284.01 11.11, 282 32 C284.49 101.79, 284.73 169.96, 282 250 C285.27 271.5, 272 284.85, 250 282 C202.53 284.18, 156.28 281.4, 32 282 C13.48 284.79, 2.54 270.53, 0 250 C3.38 172.48, 3.74 97.46, 0 32 C1.98 11.24, 7.41 -1.42, 32 0" stroke="none" stroke-width="0" fill="#846358"></path><path d="M32 0 C117.88 0.43, 202.93 2.15, 250 0 M32 0 C107.65 -0.06, 183.98 0.54, 250 0 M250 0 C270.48 1.03, 283.9 11.98, 282 32 M250 0 C270.84 0.74, 283.18 8.6, 282 32 M282 32 C283.87 115.32, 282.87 202.81, 282 250 M282 32 C283.49 77.35, 282.17 122.65, 282 250 M282 250 C283.8 272.02, 271.33 280.24, 250 282 M282 250 C281.55 269.44, 271.01 283.74, 250 282 M250 282 C193.36 279.77, 138.89 282.32, 32 282 M250 282 C201.15 280.22, 151.11 281.34, 32 282 M32 282 C10.25 283.45, -0.31 271.83, 0 250 M32 282 C9.64 282.82, -2.15 272.34, 0 250 M0 250 C-3.02 165.57, -3.08 80.17, 0 32 M0 250 C0.91 168.7, -0.14 85.94, 0 32 M0 32 C1.88 11.54, 11.47 -1.35, 32 0 M0 32 C1.56 8.73, 10.72 2.2, 32 0" stroke="#1e1e1e" stroke-width="2" fill="none"></path></g><g stroke-linecap="round" transform="translate(1305 180.8948412698416) rotate(0 141 141)"><path d="M32 0 C108.66 -2.54, 185.75 -2.57, 250 0 C273.34 0.44, 282.51 12.99, 282 32 C282.83 112.06, 285.16 190.36, 282 250 C282.66 274.19, 268.4 280.65, 250 282 C187.64 284.27, 124.69 287.06, 32 282 C13.21 281.2, 1.62 269.72, 0 250 C0.2 201.61, -0.29 158.04, 0 32 C-3.25 9.25, 7.58 3.13, 32 0" stroke="none" stroke-width="0" fill="#f08c00"></path><path d="M32 0 C85.89 1.77, 139.63 1.32, 250 0 M32 0 C87.54 1.61, 144.33 2.31, 250 0 M250 0 C273.23 1.31, 281.57 11.31, 282 32 M250 0 C272.51 -2.07, 284.03 11.86, 282 32 M282 32 C282.86 87.62, 281.38 141.02, 282 250 M282 32 C282.95 100.6, 284.34 170.32, 282 250 M282 250 C281.99 269.57, 270.94 280.36, 250 282 M282 250 C281.67 273.07, 270.23 280.88, 250 282 M250 282 C194.58 281.92, 140.3 279.85, 32 282 M250 282 C200.72 281.89, 151.11 281.79, 32 282 M32 282 C10.35 282.49, -0.9 272.05, 0 250 M32 282 C8.52 283.01, 1.97 273.14, 0 250 M0 250 C0.08 199.74, 2.98 152.34, 0 32 M0 250 C-1.62 203.74, -0.25 158.9, 0 32 M0 32 C0.8 9.32, 12.02 -1.68, 32 0 M0 32 C0.05 12.86, 9.55 0.36, 32 0" stroke="#1e1e1e" stroke-width="2" fill="none"></path></g><g stroke-linecap="round" transform="translate(1370.4999999999998 231.22817460317486) rotate(0 75.5 13)"><path d="M6.5 0 C51.63 -0.42, 103.05 1.31, 144.5 0 C149.35 2.33, 153.26 2.49, 151 6.5 C153.17 11.04, 151.47 17.22, 151 19.5 C148.06 22.49, 148.58 26.18, 144.5 26 C95.27 28.5, 42.96 24.91, 6.5 26 C3.78 24.39, -3.17 25.96, 0 19.5 C1.12 16.94, -2.28 12.71, 0 6.5 C-3.08 5.29, 5.13 -3.27, 6.5 0" stroke="none" stroke-width="0" fill="#a18072"></path><path d="M6.5 0 C44.04 -0.13, 78.74 -2.59, 144.5 0 M6.5 0 C33.96 0.9, 63.22 1.04, 144.5 0 M144.5 0 C148.4 0.64, 152.03 0.37, 151 6.5 M144.5 0 C150.87 1.19, 149.81 3.34, 151 6.5 M151 6.5 C149.81 9.92, 151.21 13.35, 151 19.5 M151 6.5 C151.49 10.36, 150.91 13.2, 151 19.5 M151 19.5 C150.61 22.19, 148.55 27.51, 144.5 26 M151 19.5 C149.9 22.72, 147.65 23.77, 144.5 26 M144.5 26 C111.61 26.13, 80.18 28.47, 6.5 26 M144.5 26 C108.99 27.89, 73.74 27.41, 6.5 26 M6.5 26 C1.27 26.72, -1.87 24.71, 0 19.5 M6.5 26 C4.14 27.8, -1.77 21.81, 0 19.5 M0 19.5 C1.09 15.55, -1.05 12.91, 0 6.5 M0 19.5 C0.69 15.19, 0.35 9.86, 0 6.5 M0 6.5 C1.36 0.48, 2.21 1.91, 6.5 0 M0 6.5 C-1.12 2.52, 3.48 -2.02, 6.5 0" stroke="#1e1e1e" stroke-width="2" fill="none"></path></g><g transform="translate(528.375917949374 351.11024755788634) rotate(0 11.013603210449219 50.808963522644206)"><text x="0" y="0" font-family="Virgil, Segoe UI Emoji" font-size="81.29434163623077px" fill="#1e1e1e" text-anchor="start" style="white-space: pre;" direction="ltr" dominant-baseline="text-before-edge">1</text></g><g transform="translate(816.3679580688477 356.02436981068905) rotate(0 28.93610382080078 50.80896352264426)"><text x="0" y="0" font-family="Virgil, Segoe UI Emoji" font-size="81.29434163623077px" fill="#1e1e1e" text-anchor="start" style="white-space: pre;" direction="ltr" dominant-baseline="text-before-edge">2</text></g><g transform="translate(1125.3972295125325 357.6910364773559) rotate(0 27.676246643066406 50.808963522644206)"><text x="0" y="0" font-family="Virgil, Segoe UI Emoji" font-size="81.29434163623077px" fill="#1e1e1e" text-anchor="start" style="white-space: pre;" direction="ltr" dominant-baseline="text-before-edge">3</text></g><g transform="translate(1418.7305628458657 364.35770314402265) rotate(0 26.009979248046875 50.808963522644206)"><text x="0" y="0" font-family="Virgil, Segoe UI Emoji" font-size="81.29434163623077px" fill="#1e1e1e" text-anchor="start" style="white-space: pre;" direction="ltr" dominant-baseline="text-before-edge">4</text></g><g stroke-linecap="round" transform="translate(135.00000000000006 95.83333333333337) rotate(0 109.33333333333343 148.50000000000009)"><path d="M32 0 C62.54 -0.67, 98.27 0.15, 186.67 0 C207.83 -1.65, 219.26 7.73, 218.67 32 C216.06 118.78, 216.57 204.56, 218.67 265 C221.21 287.23, 204.68 294.49, 186.67 297 C146.77 300.96, 97.6 297.81, 32 297 C11.01 297.7, -0.83 288.55, 0 265 C0.28 186.64, -1.78 104.17, 0 32 C-1.15 10.46, 10.65 0.85, 32 0" stroke="none" stroke-width="0" fill="#eaddd7"></path><path d="M32 0 C80.05 -0.5, 123.43 1.37, 186.67 0 M32 0 C77.46 -1.55, 122.93 -1.55, 186.67 0 M186.67 0 C207.98 1.67, 219.01 12.54, 218.67 32 M186.67 0 C209.98 0.57, 218.74 11.03, 218.67 32 M218.67 32 C221.93 92.05, 221.52 153.41, 218.67 265 M218.67 32 C220.5 98.41, 220.64 163.6, 218.67 265 M218.67 265 C219.63 287.81, 209.59 296.5, 186.67 297 M218.67 265 C217.52 286.81, 206.2 294.92, 186.67 297 M186.67 297 C141.22 298.3, 93.03 297.91, 32 297 M186.67 297 C127.21 295.84, 68.99 296.05, 32 297 M32 297 C12.39 296.83, 1.58 285.13, 0 265 M32 297 C11.92 296.44, -0.27 284.25, 0 265 M0 265 C0.87 206.87, 1.96 151.08, 0 32 M0 265 C0.04 202.89, -0.04 139.92, 0 32 M0 32 C-1.95 9, 11.8 0.81, 32 0 M0 32 C0.96 9.88, 10.59 -0.83, 32 0" stroke="#1e1e1e" stroke-width="2" fill="none"></path></g><g stroke-linecap="round" transform="translate(104.75992063492077 292.5615079365081) rotate(0 141 141)"><path d="M32 0 C87.18 3.97, 142.21 5.15, 250 0 C271.72 -0.87, 285.22 11.05, 282 32 C278.58 100.93, 280.93 169.36, 282 250 C284.63 273.9, 273.9 282.14, 250 282 C175.09 285.17, 95.49 279.7, 32 282 C10.7 279.79, 0.68 271.09, 0 250 C-2.92 175.05, -1.35 107.8, 0 32 C2.48 8.57, 8.28 0, 32 0" stroke="none" stroke-width="0" fill="#f08c00"></path><path d="M32 0 C86.37 1.47, 137.97 1.46, 250 0 M32 0 C100.96 1.45, 167.79 1.65, 250 0 M250 0 C273.09 1.09, 281.82 9.23, 282 32 M250 0 C271.4 1.79, 281.3 8.58, 282 32 M282 32 C279.75 91.43, 281.3 149.16, 282 250 M282 32 C282.5 110.52, 282.4 190.16, 282 250 M282 250 C283.84 271.77, 271.85 281.92, 250 282 M282 250 C280.33 272.2, 272.57 280.1, 250 282 M250 282 C195.7 282.98, 144.09 281.21, 32 282 M250 282 C194.97 281.82, 139.12 281.51, 32 282 M32 282 C10.37 282.23, 1.01 270.71, 0 250 M32 282 C10.97 282.93, 2.09 271.57, 0 250 M0 250 C-1.14 178.75, -2.1 102.95, 0 32 M0 250 C1.52 196.51, 1.81 144.06, 0 32 M0 32 C1.89 10.48, 10.99 -0.69, 32 0 M0 32 C1.94 8.5, 11.31 1.36, 32 0" stroke="#1e1e1e" stroke-width="2" fill="none"></path></g><g stroke-linecap="round" transform="translate(170.25992063492077 342.8948412698415) rotate(0 75.5 13)"><path d="M6.5 0 C39.34 -0.34, 66.73 -4.76, 144.5 0 C150.32 -1.63, 152.36 1.12, 151 6.5 C150.05 11.36, 151.09 11.96, 151 19.5 C154 26.79, 147.11 27.52, 144.5 26 C98.45 23.71, 52.18 25.11, 6.5 26 C1.38 24.21, -1.22 24.19, 0 19.5 C-1.71 15.4, 1.01 14.83, 0 6.5 C-3.3 0.09, 2.95 3.25, 6.5 0" stroke="none" stroke-width="0" fill="#eaddd7"></path><path d="M6.5 0 C52.47 2.31, 100.11 0.64, 144.5 0 M6.5 0 C59.82 0.13, 112.09 -1.18, 144.5 0 M144.5 0 C147.23 -0.54, 150.94 0.56, 151 6.5 M144.5 0 C149.83 -2.04, 152.1 0.9, 151 6.5 M151 6.5 C150.89 11.16, 149.87 17.61, 151 19.5 M151 6.5 C151.19 10.43, 151.25 13.68, 151 19.5 M151 19.5 C151.28 24.62, 148.79 25.96, 144.5 26 M151 19.5 C149.55 23.31, 148.45 26.81, 144.5 26 M144.5 26 C111.33 27.27, 81.9 27.02, 6.5 26 M144.5 26 C113.84 26.19, 81.77 27.21, 6.5 26 M6.5 26 C3.32 27.57, -0.76 23.6, 0 19.5 M6.5 26 C3.6 24.05, -1.74 22.2, 0 19.5 M0 19.5 C0.76 15.79, -0.96 15.21, 0 6.5 M0 19.5 C0.71 14.8, -0.06 9.92, 0 6.5 M0 6.5 C1.23 4.09, 3.22 -0.58, 6.5 0 M0 6.5 C1.94 0.55, 1.85 0.06, 6.5 0" stroke="#1e1e1e" stroke-width="2" fill="none"></path></g><g transform="translate(218.3233540852866 477.691036477356) rotate(0 27.960731506347656 50.80896352264426)"><text x="0" y="0" font-family="Virgil, Segoe UI Emoji" font-size="81.29434163623077px" fill="#1e1e1e" text-anchor="start" style="white-space: pre;" direction="ltr" dominant-baseline="text-before-edge">0</text></g><g transform="translate(166.37260182698571 119.35770314402276) rotate(0 83.1258316040039 108.35218306198755)"><text x="0" y="0" font-family="Virgil, Segoe UI Emoji" font-size="173.36349289918007px" fill="#1e1e1e" text-anchor="start" style="white-space: pre;" direction="ltr" dominant-baseline="text-before-edge">10</text></g></svg>